<svg width="145" height="119" viewBox="0 0 145 119" fill="none" xmlns="http://www.w3.org/2000/svg">
<path fill-rule="evenodd" clip-rule="evenodd" d="M66.4314 1.49148C69.8761 0.386009 73.5572 0.241698 77.0778 1.07411L78.5684 1.49148L121.856 15.3775C123.115 15.7949 124.248 16.5766 125.076 17.6697L125.54 18.3654L143.758 49.8142C144.219 50.6086 144.51 51.4901 144.612 52.4028C144.714 53.3155 144.625 54.2395 144.351 55.116C144.077 55.9925 143.623 56.8025 143.02 57.4945C142.416 58.1864 141.675 58.7453 140.843 59.1356L140.048 59.447L126.461 63.8062V92.4925C126.46 95.1151 125.68 97.6785 124.221 99.858C122.763 102.037 120.69 103.735 118.265 104.735L117.258 105.106L78.5684 117.508C75.1238 118.614 71.4427 118.758 67.9221 117.926L66.4314 117.515L27.7414 105.106C25.2436 104.304 23.0401 102.779 21.4101 100.723C19.7802 98.6674 18.7972 96.1741 18.5857 93.5591L18.5393 92.4859V63.8062L4.95143 59.447C4.07759 59.1665 3.27155 58.7076 2.5844 58.0993C1.89725 57.491 1.34399 56.7465 0.959678 55.9131C0.575371 55.0797 0.368405 54.1756 0.351902 53.258C0.335398 52.3404 0.509717 51.4294 0.863806 50.5827L1.24143 49.8142L19.4602 18.3654C20.1431 17.1871 21.1725 16.2479 22.4083 15.6756L23.1371 15.3775L66.4314 1.49148ZM79.1249 61.5206V103.417L113.211 92.4859V68.0595L92.7393 74.6249C91.4265 75.0459 90.015 75.0469 88.7016 74.6277C87.3881 74.2085 86.2382 73.39 85.4121 72.2862L84.9881 71.637L79.1249 61.5206ZM65.8749 61.5206L60.0118 71.637C59.2542 72.9443 58.0725 73.9533 56.6627 74.4967C55.2528 75.0402 53.6996 75.0854 52.2606 74.6249L31.7893 68.0595V92.4859L65.8749 103.424V61.5206ZM28.2449 29.6212L16.8301 49.3439L51.2204 60.3811L62.6486 40.6585L28.2449 29.6212ZM116.755 29.6212L82.3513 40.6585L93.7728 60.3811L128.17 49.3439L116.755 29.6212ZM74.5206 14.1055C73.4718 13.7705 72.3561 13.7022 71.2743 13.9067L70.4793 14.1055L46.8612 21.6845L72.4999 29.9061L98.1387 21.6845L74.5206 14.1055Z" fill="#A7A7A7"/>
</svg>
