<svg width="132" height="132" viewBox="0 0 132 132" fill="none" xmlns="http://www.w3.org/2000/svg">
<path d="M94.215 113.85L117.15 91.08L110.22 84.15L94.215 99.825L87.78 93.39L80.85 100.485L94.215 113.85ZM19.8 39.6H99V26.4H19.8V39.6ZM99 132C89.87 132 82.0875 128.783 75.6525 122.348C69.2175 115.913 66 108.13 66 99C66 89.87 69.2175 82.0875 75.6525 75.6525C82.0875 69.2175 89.87 66 99 66C108.13 66 115.913 69.2175 122.348 75.6525C128.783 82.0875 132 89.87 132 99C132 108.13 128.783 115.913 122.348 122.348C115.913 128.783 108.13 132 99 132ZM0 125.4V13.2C0 9.57 1.2925 6.4625 3.8775 3.8775C6.4625 1.2925 9.57 0 13.2 0H105.6C109.23 0 112.338 1.2925 114.923 3.8775C117.508 6.4625 118.8 9.57 118.8 13.2V57.255C116.71 56.265 114.565 55.44 112.365 54.78C110.165 54.12 107.91 53.625 105.6 53.295V13.2H13.2V105.93H53.295C53.845 109.34 54.6975 112.585 55.8525 115.665C57.0075 118.745 58.52 121.66 60.39 124.41L59.4 125.4L49.5 115.5L39.6 125.4L29.7 115.5L19.8 125.4L9.9 115.5L0 125.4ZM19.8 92.4H53.295C53.625 90.09 54.12 87.835 54.78 85.635C55.44 83.435 56.265 81.29 57.255 79.2H19.8V92.4ZM19.8 66H66.66C70.84 61.93 75.7075 58.7125 81.2625 56.3475C86.8175 53.9825 92.73 52.8 99 52.8H19.8V66Z" fill="#069941"/>
</svg>
